<?xml version="1.0" encoding="UTF-8"?>
<!DOCTYPE svg PUBLIC "-//W3C//DTD SVG 1.1//EN" "http://www.w3.org/Graphics/SVG/1.1/DTD/svg11.dtd">
<!-- Creator: CorelDRAW 2021 (64 Bit) -->
<svg xmlns="http://www.w3.org/2000/svg" xml:space="preserve" width="800px" height="500px" version="1.1" style="shape-rendering:geometricPrecision; text-rendering:geometricPrecision; image-rendering:optimizeQuality; fill-rule:evenodd; clip-rule:evenodd"
viewBox="0 0 800 500"
 xmlns:xlink="http://www.w3.org/1999/xlink"
 xmlns:xodm="http://www.corel.com/coreldraw/odm/2003">
 <defs>
  <style type="text/css">
   <![CDATA[
    .fil2 {fill:#8FBC4A}
    .fil1 {fill:#0194D9}
    .fil0 {fill:#FEFEFE;fill-opacity:0.000000}
   ]]>
  </style>
 </defs>
 <g id="Camada_x0020_1">
  <metadata id="CorelCorpID_0Corel-Layer"/>
  <polygon class="fil0" points="0,0 800,0 800,500 0,500 "/>
  <path class="fil1" d="M347.13 257.47c0,-18.28 8.35,-33.06 16.13,-43.98 7.96,-11.18 21.58,-20.53 38.77,-19.6 18.05,0.97 29.27,10.87 36.61,22.93 3.6,5.91 6.55,14.61 8.02,22.07 6.07,30.74 10.13,23.2 -92.59,23.2 -3.79,0 -6.94,-1.38 -6.94,-4.62zm-76.28 39.3c0,41.45 13.38,92.13 45.19,118.93 26,21.91 59.55,33.64 95.82,33.64 30.58,0 75.18,-8.12 94.78,-18.5l-8.47 -42.44c-3.3,-19.63 3.18,-11.57 -32.14,-5.1 -40.51,7.43 -88.59,8.68 -111.04,-31.97 -6.59,-11.93 -7.86,-20.46 -7.86,-33.76l173.38 0c0,-51.38 3.39,-96.92 -29.01,-139.74 -40.35,-53.35 -123.61,-53.2 -170.4,-8.81l-6.1 5.46c-27.08,25.7 -44.15,76.68 -44.15,122.29z"/>
  <path class="fil1" d="M83.6 225.1c0,32.87 2.07,56.65 37.4,80.5 20.97,14.16 45.37,21.09 64.43,34.98 10.59,7.72 14.12,18.71 11.1,31.92 -11.46,50.21 -104.31,3.26 -105.99,2.86 -0.95,1.98 -13.87,53.49 -13.87,55.48 0,8.85 46.5,17.65 53.77,20.2 3.42,1.21 7.11,2.18 11,2.92l40.95 0c32.5,-5.32 66.24,-22.75 81.21,-53.48 13.88,-28.47 12.4,-64.27 -4.38,-89.78 -22.81,-34.67 -59.01,-40.51 -84.74,-56.26 -31.5,-19.28 -17,-59.34 23.35,-53.61 11.34,1.61 18.78,2.6 27.12,5.44 9.34,3.18 13.44,7.41 22.78,9.59 0.67,-8.09 4.87,-19.39 6.94,-27.74 2.18,-8.79 6.17,-20.89 6.93,-30.06l-32.56 -11.35c-35.89,-10.24 -84.84,-4.2 -111.35,17.71 -8.87,7.34 -16.19,14.11 -22.12,24.11 -4.13,6.96 -11.97,26.37 -11.97,36.57z"/>
  <polygon class="fil2" points="712.38,30.92 633.78,30.92 633.78,329.13 712.38,329.13 "/>
  <polygon class="fil1" points="536.69,442.4 615.29,442.4 615.29,144.2 536.69,144.2 "/>
  <circle class="fil2" cx="572.93" cy="74.68" r="42.76"/>
  <circle class="fil1" cx="668.06" cy="398.9" r="42.76"/>
 </g>
</svg>
